HIERARCHY
ROOT hip
{
  OFFSET 0 0 0
  CHANNELS 6 Xposition Yposition Zposition Zrotation Yrotation Xrotation
  JOINT abdomen
  {
    OFFSET 0 20.6881 -0.73152
    CHANNELS 3 Zrotation Xrotation Yrotation
    JOINT chest
    {
      OFFSET 0 11.7043 -0.48768
      CHANNELS 3 Zrotation Xrotation Yrotation
      JOINT neck
      {
        OFFSET 0 22.1894 -2.19456
        CHANNELS 3 Zrotation Xrotation Yrotation
        JOINT head
        {
          OFFSET -0.24384 7.07133 1.2192
          CHANNELS 3 Zrotation Xrotation Yrotation
          JOINT leftEye
          {
            OFFSET 4.14528 8.04674 8.04672
            CHANNELS 3 Zrotation Xrotation Yrotation
            End Site
            {
              OFFSET 1 0 0
            }
          }
          JOINT rightEye
          {
            OFFSET -3.6576 8.04674 8.04672
            CHANNELS 3 Zrotation Xrotation Yrotation
            End Site
            {
              OFFSET 1 0 0
            }
          }
        }
      }
      JOINT rCollar
      {
        OFFSET -2.68224 19.2634 -4.8768
        CHANNELS 3 Zrotation Xrotation Yrotation
        JOINT rShldr
        {
          OFFSET -8.77824 -1.95073 1.46304
          CHANNELS 3 Zrotation Xrotation Yrotation
          JOINT rForeArm
          {
            OFFSET -28.1742 -1.7115 0.48768
            CHANNELS 3 Zrotation Xrotation Yrotation
            JOINT rHand
            {
              OFFSET -22.5879 0.773209 7.07136
              CHANNELS 3 Zrotation Xrotation Yrotation
              JOINT rThumb1
              {
                OFFSET -1.2192 -0.487915 3.41376
                CHANNELS 3 Zrotation Xrotation Yrotation
                JOINT rThumb2
                {
                  OFFSET -3.37035 -0.52449 3.41376
                  CHANNELS 3 Zrotation Xrotation Yrotation
                  End Site
                  {
                    OFFSET -1.78271 -1.18214 1.43049
                  }
                }
              }
              JOINT rIndex1
              {
                OFFSET -7.75947 0.938293 5.60832
                CHANNELS 3 Zrotation Xrotation Yrotation
                JOINT rIndex2
                {
                  OFFSET -2.54057 -0.884171 1.56538
                  CHANNELS 3 Zrotation Xrotation Yrotation
                  End Site
                  {
                    OFFSET -1.62519 -0.234802 1.16502
                  }
                }
              }
              JOINT rMid1
              {
                OFFSET -8.24714 1.18213 3.41376
                CHANNELS 3 Zrotation Xrotation Yrotation
                JOINT rMid2
                {
                  OFFSET -3.10165 -0.590103 1.0647
                  CHANNELS 3 Zrotation Xrotation Yrotation
                  End Site
                  {
                    OFFSET -2.48547 -0.328903 0.83742
                  }
                }
              }
              JOINT rRing1
              {
                OFFSET -8.82822 0.546677 1.51678
                CHANNELS 3 Zrotation Xrotation Yrotation
                JOINT rRing2
                {
                  OFFSET -2.60934 -0.819778 -0.0198488
                  CHANNELS 3 Zrotation Xrotation Yrotation
                  End Site
                  {
                    OFFSET -2.33842 -0.294052 0.168128
                  }
                }
              }
              JOINT rPinky1
              {
                OFFSET -8.27202 -0.0477905 -0.4584
                CHANNELS 3 Zrotation Xrotation Yrotation
                JOINT rPinky2
                {
                  OFFSET -1.82734 -0.647385 -0.700984
                  CHANNELS 3 Zrotation Xrotation Yrotation
                  End Site
                  {
                    OFFSET -1.69225 -0.51767 -0.607171
                  }
                }
              }
            }
          }
        }
      }
      JOINT lCollar
      {
        OFFSET 2.68224 19.2634 -4.8768
        CHANNELS 3 Zrotation Xrotation Yrotation
        JOINT lShldr
        {
          OFFSET 8.77824 -1.95073 1.46304
          CHANNELS 3 Zrotation Xrotation Yrotation
          JOINT lForeArm
          {
            OFFSET 28.1742 -1.7115 0.48768
            CHANNELS 3 Zrotation Xrotation Yrotation
            JOINT lHand
            {
              OFFSET 22.5879 0.773209 7.07136
              CHANNELS 3 Zrotation Xrotation Yrotation
              JOINT lThumb1
              {
                OFFSET 1.2192 -0.487915 3.41376
                CHANNELS 3 Zrotation Xrotation Yrotation
                JOINT lThumb2
                {
                  OFFSET 3.37035 -0.52449 3.41376
                  CHANNELS 3 Zrotation Xrotation Yrotation
                  End Site
                  {
                    OFFSET 1.78271 -1.18214 1.43049
                  }
                }
              }
              JOINT lIndex1
              {
                OFFSET 7.75947 0.938293 5.60832
                CHANNELS 3 Zrotation Xrotation Yrotation
                JOINT lIndex2
                {
                  OFFSET 2.54057 -0.884171 1.56538
                  CHANNELS 3 Zrotation Xrotation Yrotation
                  End Site
                  {
                    OFFSET 1.62519 -0.234802 1.16502
                  }
                }
              }
              JOINT lMid1
              {
                OFFSET 8.24714 1.18213 3.41376
                CHANNELS 3 Zrotation Xrotation Yrotation
                JOINT lMid2
                {
                  OFFSET 3.10165 -0.590103 1.0647
                  CHANNELS 3 Zrotation Xrotation Yrotation
                  End Site
                  {
                    OFFSET 2.48547 -0.328903 0.83742
                  }
                }
              }
              JOINT lRing1
              {
                OFFSET 8.82822 0.546677 1.51678
                CHANNELS 3 Zrotation Xrotation Yrotation
                JOINT lRing2
                {
                  OFFSET 2.60934 -0.819778 -0.0198488
                  CHANNELS 3 Zrotation Xrotation Yrotation
                  End Site
                  {
                    OFFSET 2.33842 -0.294052 0.168128
                  }
                }
              }
              JOINT lPinky1
              {
                OFFSET 8.27202 -0.0477905 -0.4584
                CHANNELS 3 Zrotation Xrotation Yrotation
                JOINT lPinky2
                {
                  OFFSET 1.82734 -0.647385 -0.700984
                  CHANNELS 3 Zrotation Xrotation Yrotation
                  End Site
                  {
                    OFFSET 1.69225 -0.51767 -0.607171
                  }
                }
              }
            }
          }
        }
      }
    }
  }
  JOINT rButtock
  {
    OFFSET -8.77824 4.35084 1.2192
    CHANNELS 3 Zrotation Xrotation Yrotation
    JOINT rThigh
    {
      OFFSET 0 -1.70687 -2.19456
      CHANNELS 3 Zrotation Xrotation Yrotation
      JOINT rShin
      {
        OFFSET 0 -36.8199 0.73152
        CHANNELS 3 Zrotation Xrotation Yrotation
        JOINT rFoot
        {
          OFFSET 0.73152 -45.1104 -5.12064
          CHANNELS 3 Zrotation Xrotation Yrotation
          End Site
          {
            OFFSET -1.1221 -3.69964 12.103
          }
        }
      }
    }
  }
  JOINT lButtock
  {
    OFFSET 8.77824 4.35084 1.2192
    CHANNELS 3 Zrotation Xrotation Yrotation
    JOINT lThigh
    {
      OFFSET 0 -1.70687 -2.19456
      CHANNELS 3 Zrotation Xrotation Yrotation
      JOINT lShin
      {
        OFFSET 0 -36.8199 0.73152
        CHANNELS 3 Zrotation Xrotation Yrotation
        JOINT lFoot
        {
          OFFSET -0.73152 -45.1104 -5.12064
          CHANNELS 3 Zrotation Xrotation Yrotation
          End Site
          {
            OFFSET 1.1221 -3.69964 12.103
          }
        }
      }
    }
  }
}
MOTION
Frames:	4
Frame Time:	0.03333
0.0506190655474934 58.674173159293424 0.3947033452826671 -68.30894470214844 -0.5463785529136658 5.894965648651123 -60.032371520996094 0.33001434803009033 13.515827178955078 43.67964553833008 -0.49782028794288635 4.752654552459717 -71.19853973388672 0.2383636087179184 14.109610557556152 77.8533935546875 -0.5279716849327087 26.25953483581543 0.6732434630393982 0.07835625857114792 -6.409219741821289 1.210956335067749 0.07572049647569656 -7.912539005279541 -0.7401427030563354 0.16655614972114563 -4.299280643463135 90.1023941040039 1.478614091873169 -13.683856964111328 -88.1379165649414 -0.4784330725669861 103.66424560546875 -25.019073486328125 -1.290903925895691 -0.9413449764251709 -2.255629777908325 0.016092779114842415 3.8637168407440186 -2.6301610469818115 -0.1722983866930008 4.346696376800537 2.7922565937042236 0.09902660548686981 2.291238307952881 73.23445129394531 0.3039124011993408 4.527278900146484 5.6039934158325195 -0.0061480640433728695 0.6209273338317871 50.33378982543945 0.02856854535639286 1.5023261308670044 2.2972898483276367 0.017819657921791077 -0.2215644270181656 77.3676528930664 0.13881678879261017 6.031435489654541 -3.695693254470825 -0.1297207623720169 -4.048122882843018 49.369171142578125 -0.008793428540229797 -0.13761016726493835 1.3102089166641235 -0.10373328626155853 6.004064083099365 -88.34048461914062 0.12663719058036804 -22.198633193969727 87.8290786743164 -1.1949012279510498 -94.85133361816406 31.0596981048584 0.6596542000770569 -6.541775703430176 4.115981101989746 0.12943603098392487 -6.697233200073242 8.129975318908691 -0.1202864944934845 5.156727313995361 -3.7993180751800537 0.17166073620319366 -0.3664061427116394 -78.18243408203125 -0.042171940207481384 15.797486305236816 0.5088341236114502 -0.06376127898693085 3.487490653991699 -52.663177490234375 0.04157170653343201 -0.17711088061332703 -3.642578601837158 -0.17302949726581573 8.601998329162598 -80.11708068847656 0.05492289364337921 3.379490613937378 -1.3351935148239136 0.0816216692328453 -1.4748737812042236 -55.300594329833984 -0.36267587542533875 7.8469085693359375 -1.114364504814148 -0.09596065431833267 3.825838565826416 -85.01498413085938 -1.3412516117095947 -14.193846702575684 -19.27072525024414 5.898336887359619 2.2682645320892334 -68.17711639404297 -0.5960240960121155 -18.671859741210938 2.091261386871338 -0.010467387735843658 1.4761406183242798 89.3962173461914 -1.3383266925811768 25.85713005065918 13.620524406433105 3.0707764625549316 -1.5536917448043823 71.63626861572266 -0.04970243573188782 -12.014013290405273
-0.45778526490961235 62.48548018786307 -0.23034007226989353 -75.1046371459961 3.0676770210266113 22.34119987487793 -23.845308303833008 0.7166781425476074 1.2870228290557861 25.952621459960938 -0.9456050395965576 0.3326512277126312 -48.37272644042969 1.001334547996521 -4.540297985076904 70.84528350830078 -1.0397518873214722 -1.7193573713302612 -2.7718112468719482 -0.24121391773223877 0.43250471353530884 0.100602887570858 0.1270587146282196 1.4616456031799316 -5.413563251495361 -0.10464213043451309 6.069438934326172 86.41902160644531 0.7426331043243408 38.213348388671875 -84.22217559814453 -1.7881360054016113 67.313232421875 -18.945096969604492 0.8964696526527405 0.20806169509887695 1.8531869649887085 -0.1784369945526123 -0.05414528772234917 0.9637565016746521 0.03679259493947029 -0.24290001392364502 -3.533210039138794 -0.28101643919944763 -2.335231065750122 57.882328033447266 0.18222026526927948 -2.884291172027588 2.6515517234802246 0.015482517890632153 4.5731940269470215 30.387487411499023 0.11541485786437988 1.952304482460022 -0.9655517339706421 -0.15591876208782196 6.836664199829102 65.21321868896484 0.0217403843998909 2.1732113361358643 3.085231304168701 0.008828552439808846 4.762707710266113 31.632389068603516 -0.12328863143920898 4.533668518066406 -1.510014533996582 0.3013228476047516 -1.2307170629501343 -88.14842224121094 3.8071515560150146 -9.20975112915039 83.6148910522461 -1.0583102703094482 -71.49068450927734 20.38357162475586 -1.4269431829452515 9.762857437133789 1.1609944105148315 0.03744395822286606 5.608129978179932 0.11731482297182083 0.03769605606794357 0.406185120344162 1.1223280429840088 -0.037010982632637024 7.907001495361328 -66.15056610107422 0.3901582360267639 -3.3550121784210205 -3.343064546585083 -0.07493545860052109 2.2857847213745117 -31.265962600708008 0.09855497628450394 -0.4708470404148102 -0.8559949994087219 0.111086405813694 -7.261683940887451 -68.86116027832031 0.1431283801794052 0.033891987055540085 2.2902748584747314 -0.3397272527217865 1.8802049160003662 -30.71278190612793 0.09788788855075836 0.7816706299781799 0.7736138701438904 0.06199019402265549 -4.299610137939453 -79.51319885253906 -1.9464802742004395 -7.333764553070068 -9.74947452545166 8.989006996154785 4.3655500411987305 -52.3646354675293 -0.041495535522699356 -2.596282720565796 1.7228530645370483 0.24440237879753113 5.55403995513916 82.89085388183594 -1.8751511573791504 4.914434432983398 8.007285118103027 6.0327582359313965 5.165511608123779 55.81437301635742 -0.9101097583770752 21.66594696044922
-1.6717677200620462 59.30864309167425 -0.6780083862756889 -3.8850197792053223 -1.6004513502120972 9.030818939208984 -0.7189498543739319 14.408751487731934 3.216282606124878 3.2923061847686768 -10.794122695922852 0.16150826215744019 -4.875728607177734 14.336889266967773 -3.2906763553619385 9.137237548828125 -24.816768646240234 -4.307816028594971 -0.37241750955581665 -0.05444232001900673 -0.7669071555137634 -0.5309275388717651 0.2162143588066101 -1.2846304178237915 -0.5772894024848938 0.6456663608551025 -0.7542688250541687 42.405479431152344 41.30100631713867 22.460432052612305 -24.455684661865234 -30.240386962890625 71.51310729980469 -1.2589526176452637 -14.795971870422363 -2.6898534297943115 0.8997073769569397 0.5608801245689392 0.09184086322784424 0.17463542520999908 -0.010517922230064869 -0.7700493931770325 0.42208054661750793 -0.11649776995182037 -0.3728385269641876 7.19407844543457 5.042757034301758 -0.40188461542129517 1.0644993782043457 0.6376950740814209 -1.3430203199386597 2.541954517364502 0.9253084659576416 -0.5318740010261536 -0.36639538407325745 0.10249325633049011 -0.6140012145042419 10.073318481445312 0.29602575302124023 0.08958054333925247 0.17010772228240967 -0.34064123034477234 -0.8751574158668518 2.40535569190979 -0.927422046661377 -0.8266090750694275 -0.06823626905679703 0.7806317210197449 -0.5227971076965332 -47.79437255859375 41.61737823486328 -33.9131965637207 24.463415145874023 -26.54941749572754 -68.7992172241211 0.8558659553527832 -11.08983039855957 0.5137766599655151 0.4091269075870514 0.35424375534057617 -0.23336568474769592 0.7373978495597839 -0.5430014133453369 -0.591681957244873 0.22963252663612366 0.09135718643665314 -0.5480309724807739 -7.440916538238525 5.2181525230407715 -0.7449411749839783 -0.5472725629806519 -0.3878014087677002 -0.15555636584758759 -2.3960938453674316 0.35607242584228516 -0.39181554317474365 -0.41540277004241943 -0.33594831824302673 -0.7662671208381653 -10.393464088439941 0.7732824087142944 -0.3235379457473755 0.6086323857307434 -0.116347536444664 0.07966957241296768 -1.9038605690002441 -0.8772885799407959 -0.27870529890060425 -0.3580830991268158 -0.1030508279800415 -1.061895728111267 -18.65073585510254 -42.168479919433594 -16.16004180908203 -1.3572155237197876 65.79785919189453 2.3454835414886475 -4.768207550048828 -12.715104103088379 -11.66443157196045 0.4788552522659302 -0.26772892475128174 -0.2300800383090973 28.60543441772461 -47.96818542480469 21.7864933013916 0.2107415497303009 69.75453186035156 -1.6037795543670654 5.687439441680908 -10.74696159362793 11.408478736877441
-3.075218875738693 58.31207751063437 -1.4599188375052283 -4.047989368438721 -6.113982200622559 6.889107704162598 2.29845929145813 16.281452178955078 5.34623908996582 0.4427504539489746 -10.092127799987793 1.431524634361267 -3.9296762943267822 13.838669776916504 1.1614036560058594 6.752699851989746 -28.824256896972656 1.1925104856491089 -0.25545674562454224 0.033425223082304 0.44109123945236206 0.02273794822394848 1.0088670253753662 0.3166053593158722 -1.379844307899475 0.8380584716796875 0.31377020478248596 22.62443733215332 45.93647384643555 44.727108001708984 -26.361160278320312 -33.98908615112305 74.22991180419922 -0.4781905710697174 -17.56279754638672 -2.8218436241149902 0.44731616973876953 -0.05633426085114479 0.8611451387405396 0.23422551155090332 -0.036505408585071564 0.30410438776016235 0.43317776918411255 -0.17350329458713531 0.8381602764129639 7.465373992919922 5.230669021606445 0.7747830748558044 0.8044631481170654 1.1815049648284912 -0.4811215102672577 3.0606653690338135 0.975419282913208 0.48095929622650146 -0.5103732347488403 -0.1898692548274994 -0.29665422439575195 10.750946044921875 0.8335378170013428 0.7447001934051514 0.7319030165672302 -0.7331401109695435 0.25765910744667053 1.9469397068023682 -1.0923231840133667 -0.25204500555992126 -0.3327483534812927 0.8456923961639404 -0.32052141427993774 -30.592599868774414 37.25867462158203 -58.767799377441406 24.96202850341797 -31.46314811706543 -74.0479736328125 -0.03046124055981636 -11.349549293518066 2.2150800228118896 0.10257259756326675 -0.12706251442432404 -0.2004309594631195 0.40177062153816223 -0.3714711368083954 0.0933985486626625 0.3991420865058899 -0.6206967830657959 -0.3401173949241638 -6.62727165222168 5.945910930633545 -0.6148657202720642 -0.40857189893722534 -0.6482284665107727 0.2757881283760071 -3.076223373413086 -0.08361376821994781 -0.5735921263694763 -0.049724023789167404 -0.5027381181716919 0.07851307094097137 -11.123445510864258 0.31952351331710815 -0.41481688618659973 0.5764492750167847 -0.3481031656265259 0.15734155476093292 -2.224870443344116 -0.10364697128534317 0.43455958366394043 -0.4473189115524292 -0.5129315853118896 -0.6399402022361755 -7.040952205657959 -37.28458023071289 -11.327425956726074 -2.813169002532959 70.69815063476562 4.560841083526611 -7.868772983551025 -12.044586181640625 -19.638452529907227 -0.1196344792842865 0.8567092418670654 0.46093231439590454 38.7499885559082 -62.680335998535156 36.63545227050781 7.274906158447266 84.654052734375 -7.5652289390563965 1.636788010597229 -4.977995872497559 8.640037536621094
